<?xml version="1.0" encoding="UTF-8" standalone="no"?>
<!DOCTYPE svg PUBLIC "-//W3C//DTD SVG 1.1//EN" "http://www.w3.org/Graphics/SVG/1.1/DTD/svg11.dtd">
<svg width="100%" height="100%" viewBox="0 0 2073 1956" version="1.1" xmlns="http://www.w3.org/2000/svg" xmlns:xlink="http://www.w3.org/1999/xlink" xml:space="preserve" xmlns:serif="http://www.serif.com/" style="fill-rule:evenodd;clip-rule:evenodd;">
    <g transform="matrix(1,0,0,1,6.25169,-844.144)">
        <g>
            <g id="Layer2" transform="matrix(1.12385,0,0,1.12385,714.381,1375.41)">
                <g transform="matrix(2.69834,0,0,2.69834,-1528.99,-1107.01)">
                    <rect x="331.067" y="424.345" width="66.542" height="16.43" style="fill:rgb(0,0,119);stroke:black;stroke-width:1px;"/>
                    <g transform="matrix(1,0,0,1,335.175,435.846)">
                        <text x="0px" y="0px" style="font-family:'ArialMT', 'Arial', sans-serif;font-size:13.144px;fill:white;">admin</text>
                    </g>
                    <rect x="331.067" y="440.775" width="66.542" height="16.43" style="fill:rgb(170,238,170);stroke:black;stroke-width:1px;"/>
                    <g transform="matrix(1,0,0,1,335.175,452.277)">
                        <text x="0px" y="0px" style="font-family:'ArialMT', 'Arial', sans-serif;font-size:13.144px;">id_admin</text>
                    </g>
                    <rect x="331.067" y="457.206" width="66.542" height="16.43" style="fill:none;stroke:black;stroke-width:1px;"/>
                    <g transform="matrix(1,0,0,1,335.175,468.707)">
                        <text x="0px" y="0px" style="font-family:'ArialMT', 'Arial', sans-serif;font-size:13.144px;">username</text>
                    </g>
                    <rect x="331.067" y="473.636" width="66.542" height="16.43" style="fill:none;stroke:black;stroke-width:1px;"/>
                    <g transform="matrix(1,0,0,1,335.175,485.137)">
                        <text x="0px" y="0px" style="font-family:'ArialMT', 'Arial', sans-serif;font-size:13.144px;">password</text>
                    </g>
                </g>
                <g transform="matrix(2.69834,0,0,2.69834,-2147.4,52.6282)">
                    <g transform="matrix(1.11491,0,0,1,-94.5866,0)">
                        <rect x="823.15" y="52.203" width="87.08" height="16.43" style="fill:rgb(0,0,119);stroke:black;stroke-width:1px;"/>
                    </g>
                    <g transform="matrix(1,0,0,1,827.257,63.7037)">
                        <text x="0px" y="0px" style="font-family:'ArialMT', 'Arial', sans-serif;font-size:13.144px;fill:white;">apply_job_post</text>
                    </g>
                    <g transform="matrix(1.11491,0,0,1,-94.5866,0)">
                        <rect x="823.15" y="68.633" width="87.08" height="16.43" style="fill:rgb(170,238,170);stroke:black;stroke-width:1px;"/>
                    </g>
                    <g transform="matrix(1,0,0,1,827.257,80.1339)">
                        <text x="0px" y="0px" style="font-family:'ArialMT', 'Arial', sans-serif;font-size:13.144px;">id_apply</text>
                    </g>
                    <g transform="matrix(1.11491,0,0,1,-94.5866,0)">
                        <rect x="823.15" y="85.063" width="87.08" height="16.43" style="fill:none;stroke:black;stroke-width:1px;"/>
                    </g>
                    <g transform="matrix(1,0,0,1,827.257,96.564)">
                        <text x="0px" y="0px" style="font-family:'ArialMT', 'Arial', sans-serif;font-size:13.144px;">id_jobpost</text>
                    </g>
                    <g transform="matrix(1.11491,0,0,1,-94.5866,0)">
                        <rect x="823.15" y="101.493" width="87.08" height="16.43" style="fill:none;stroke:black;stroke-width:1px;"/>
                    </g>
                    <g transform="matrix(1,0,0,1,827.257,112.994)">
                        <text x="0px" y="0px" style="font-family:'ArialMT', 'Arial', sans-serif;font-size:13.144px;">id_company</text>
                    </g>
                    <g transform="matrix(1.11491,0,0,1,-94.5866,0)">
                        <rect x="823.15" y="117.923" width="87.08" height="16.43" style="fill:none;stroke:black;stroke-width:1px;"/>
                    </g>
                    <g transform="matrix(1,0,0,1,827.257,129.424)">
                        <text x="0px" y="0px" style="font-family:'ArialMT', 'Arial', sans-serif;font-size:13.144px;">id_user</text>
                    </g>
                    <g transform="matrix(1.11491,0,0,1,-94.5866,0)">
                        <rect x="823.15" y="134.353" width="87.08" height="16.43" style="fill:none;stroke:black;stroke-width:1px;"/>
                    </g>
                    <g transform="matrix(1,0,0,1,827.257,145.854)">
                        <text x="0px" y="0px" style="font-family:'ArialMT', 'Arial', sans-serif;font-size:13.144px;">status</text>
                    </g>
                </g>
                <g transform="matrix(2.69834,0,0,2.69834,-2349.97,-447.007)">
                    <rect x="819.042" y="351.231" width="50.933" height="16.43" style="fill:rgb(0,0,119);stroke:black;stroke-width:1px;"/>
                    <g transform="matrix(1,0,0,1,823.15,362.732)">
                        <text x="0px" y="0px" style="font-family:'ArialMT', 'Arial', sans-serif;font-size:13.144px;fill:white;">cities</text>
                    </g>
                    <rect x="819.042" y="367.661" width="50.933" height="16.43" style="fill:rgb(170,238,170);stroke:black;stroke-width:1px;"/>
                    <g transform="matrix(1,0,0,1,823.15,379.162)">
                        <text x="0px" y="0px" style="font-family:'ArialMT', 'Arial', sans-serif;font-size:13.144px;">id</text>
                    </g>
                    <rect x="819.042" y="384.091" width="50.933" height="16.43" style="fill:none;stroke:black;stroke-width:1px;"/>
                    <g transform="matrix(1,0,0,1,823.15,395.593)">
                        <text x="0px" y="0px" style="font-family:'ArialMT', 'Arial', sans-serif;font-size:13.144px;">name</text>
                    </g>
                    <rect x="819.042" y="400.522" width="50.933" height="16.43" style="fill:none;stroke:black;stroke-width:1px;"/>
                    <g transform="matrix(1,0,0,1,823.15,412.023)">
                        <text x="0px" y="0px" style="font-family:'ArialMT', 'Arial', sans-serif;font-size:13.144px;">state_id</text>
                    </g>
                </g>
                <g transform="matrix(2.69834,0,0,2.69834,-668.908,-644.294)">
                    <rect x="597.236" y="375.055" width="94.473" height="16.43" style="fill:rgb(0,0,119);stroke:black;stroke-width:1px;"/>
                    <g transform="matrix(1,0,0,1,601.343,386.556)">
                        <text x="0px" y="0px" style="font-family:'ArialMT', 'Arial', sans-serif;font-size:13.144px;fill:white;">company</text>
                    </g>
                    <rect x="597.236" y="391.485" width="94.473" height="16.43" style="fill:rgb(170,238,170);stroke:black;stroke-width:1px;"/>
                    <g transform="matrix(1,0,0,1,601.343,402.986)">
                        <text x="0px" y="0px" style="font-family:'ArialMT', 'Arial', sans-serif;font-size:13.144px;">id_company</text>
                    </g>
                    <rect x="597.236" y="407.915" width="94.473" height="16.43" style="fill:none;stroke:black;stroke-width:1px;"/>
                    <g transform="matrix(1,0,0,1,601.343,419.416)">
                        <text x="0px" y="0px" style="font-family:'ArialMT', 'Arial', sans-serif;font-size:13.144px;">name</text>
                    </g>
                    <rect x="597.236" y="424.345" width="94.473" height="16.43" style="fill:none;stroke:black;stroke-width:1px;"/>
                    <g transform="matrix(1,0,0,1,601.343,435.846)">
                        <text x="0px" y="0px" style="font-family:'ArialMT', 'Arial', sans-serif;font-size:13.144px;">companyname</text>
                    </g>
                    <rect x="597.236" y="440.775" width="94.473" height="16.43" style="fill:none;stroke:black;stroke-width:1px;"/>
                    <g transform="matrix(1,0,0,1,601.343,452.277)">
                        <text x="0px" y="0px" style="font-family:'ArialMT', 'Arial', sans-serif;font-size:13.144px;">country</text>
                    </g>
                    <rect x="597.236" y="457.206" width="94.473" height="16.43" style="fill:none;stroke:black;stroke-width:1px;"/>
                    <g transform="matrix(1,0,0,1,601.343,468.707)">
                        <text x="0px" y="0px" style="font-family:'ArialMT', 'Arial', sans-serif;font-size:13.144px;">state</text>
                    </g>
                    <rect x="597.236" y="473.636" width="94.473" height="16.43" style="fill:none;stroke:black;stroke-width:1px;"/>
                    <g transform="matrix(1,0,0,1,601.343,485.137)">
                        <text x="0px" y="0px" style="font-family:'ArialMT', 'Arial', sans-serif;font-size:13.144px;">city</text>
                    </g>
                    <rect x="597.236" y="490.066" width="94.473" height="16.43" style="fill:none;stroke:black;stroke-width:1px;"/>
                    <g transform="matrix(1,0,0,1,601.343,501.567)">
                        <text x="0px" y="0px" style="font-family:'ArialMT', 'Arial', sans-serif;font-size:13.144px;">contactno</text>
                    </g>
                    <rect x="597.236" y="506.496" width="94.473" height="16.43" style="fill:none;stroke:black;stroke-width:1px;"/>
                    <g transform="matrix(1,0,0,1,601.343,517.997)">
                        <text x="0px" y="0px" style="font-family:'ArialMT', 'Arial', sans-serif;font-size:13.144px;">website</text>
                    </g>
                    <rect x="597.236" y="522.926" width="94.473" height="16.43" style="fill:none;stroke:black;stroke-width:1px;"/>
                    <g transform="matrix(1,0,0,1,601.343,534.427)">
                        <text x="0px" y="0px" style="font-family:'ArialMT', 'Arial', sans-serif;font-size:13.144px;">email</text>
                    </g>
                    <rect x="597.236" y="539.356" width="94.473" height="16.43" style="fill:none;stroke:black;stroke-width:1px;"/>
                    <g transform="matrix(1,0,0,1,601.343,550.857)">
                        <text x="0px" y="0px" style="font-family:'ArialMT', 'Arial', sans-serif;font-size:13.144px;">password</text>
                    </g>
                    <rect x="597.236" y="555.786" width="94.473" height="16.43" style="fill:none;stroke:black;stroke-width:1px;"/>
                    <g transform="matrix(1,0,0,1,601.343,567.287)">
                        <text x="0px" y="0px" style="font-family:'ArialMT', 'Arial', sans-serif;font-size:13.144px;">aboutme</text>
                    </g>
                    <rect x="597.236" y="572.217" width="94.473" height="16.43" style="fill:none;stroke:black;stroke-width:1px;"/>
                    <g transform="matrix(1,0,0,1,601.343,583.718)">
                        <text x="0px" y="0px" style="font-family:'ArialMT', 'Arial', sans-serif;font-size:13.144px;">logo</text>
                    </g>
                    <rect x="597.236" y="588.647" width="94.473" height="16.43" style="fill:none;stroke:black;stroke-width:1px;"/>
                    <g transform="matrix(1,0,0,1,601.343,600.148)">
                        <text x="0px" y="0px" style="font-family:'ArialMT', 'Arial', sans-serif;font-size:13.144px;">createdAt</text>
                    </g>
                    <rect x="597.236" y="605.077" width="94.473" height="16.43" style="fill:none;stroke:black;stroke-width:1px;"/>
                    <g transform="matrix(1,0,0,1,601.343,616.578)">
                        <text x="0px" y="0px" style="font-family:'ArialMT', 'Arial', sans-serif;font-size:13.144px;">active</text>
                    </g>
                </g>
                <g transform="matrix(2.69834,0,0,2.69834,-1024.87,843.88)">
                    <g transform="matrix(1.10824,0,0,1,-35.3917,0)">
                        <rect x="326.96" y="60.418" width="73.114" height="16.43" style="fill:rgb(0,0,119);stroke:black;stroke-width:1px;"/>
                    </g>
                    <g transform="matrix(1.10824,0,0,1,-35.3917,0)">
                        <rect x="326.96" y="76.848" width="73.114" height="16.43" style="fill:rgb(170,238,170);stroke:black;stroke-width:1px;"/>
                    </g>
                    <g transform="matrix(1.10824,0,0,1,-35.3917,0)">
                        <rect x="326.96" y="93.278" width="73.114" height="16.43" style="fill:none;stroke:black;stroke-width:1px;"/>
                    </g>
                    <g transform="matrix(1.10824,0,0,1,-35.3917,0)">
                        <rect x="326.96" y="109.708" width="73.114" height="16.43" style="fill:none;stroke:black;stroke-width:1px;"/>
                    </g>
                    <g transform="matrix(1.10824,0,0,1,-35.3917,0)">
                        <rect x="326.96" y="126.138" width="73.114" height="16.43" style="fill:none;stroke:black;stroke-width:1px;"/>
                    </g>
                    <g transform="matrix(1,0,0,1,331.067,71.9188)">
                        <text x="0px" y="0px" style="font-family:'ArialMT', 'Arial', sans-serif;font-size:13.144px;fill:white;">countries</text>
                    </g>
                    <g transform="matrix(1,0,0,1,331.067,121.209)">
                        <text x="0px" y="0px" style="font-family:'ArialMT', 'Arial', sans-serif;font-size:13.144px;">name</text>
                    </g>
                    <g transform="matrix(1,0,0,1,331.067,104.901)">
                        <text x="0px" y="0px" style="font-family:'ArialMT', 'Arial', sans-serif;font-size:13.144px;">countrycode</text>
                    </g>
                    <g transform="matrix(1,0,0,1,331.067,88.3489)">
                        <text x="0px" y="0px" style="font-family:'ArialMT', 'Arial', sans-serif;font-size:13.144px;">id</text>
                    </g>
                    <g transform="matrix(1,0,0,1,331.067,137.639)">
                        <text x="0px" y="0px" style="font-family:'ArialMT', 'Arial', sans-serif;font-size:13.144px;">phonecode</text>
                    </g>
                </g>
                <g transform="matrix(2.69834,0,0,2.69834,-426.527,-667.8)">
                    <rect x="331.067" y="204.181" width="100.224" height="16.43" style="fill:rgb(0,0,119);stroke:black;stroke-width:1px;"/>
                    <g transform="matrix(1,0,0,1,335.175,215.683)">
                        <text x="0px" y="0px" style="font-family:'ArialMT', 'Arial', sans-serif;font-size:13.144px;fill:white;">job_post</text>
                    </g>
                    <rect x="331.067" y="220.612" width="100.224" height="16.43" style="fill:rgb(170,238,170);stroke:black;stroke-width:1px;"/>
                    <g transform="matrix(1,0,0,1,335.175,232.113)">
                        <text x="0px" y="0px" style="font-family:'ArialMT', 'Arial', sans-serif;font-size:13.144px;">id_jobpost</text>
                    </g>
                    <rect x="331.067" y="237.042" width="100.224" height="16.43" style="fill:none;stroke:black;stroke-width:1px;"/>
                    <g transform="matrix(1,0,0,1,335.175,248.543)">
                        <text x="0px" y="0px" style="font-family:'ArialMT', 'Arial', sans-serif;font-size:13.144px;">id_company</text>
                    </g>
                    <rect x="331.067" y="253.472" width="100.224" height="16.43" style="fill:none;stroke:black;stroke-width:1px;"/>
                    <g transform="matrix(1,0,0,1,335.175,264.973)">
                        <text x="0px" y="0px" style="font-family:'ArialMT', 'Arial', sans-serif;font-size:13.144px;">jobtitle</text>
                    </g>
                    <rect x="331.067" y="269.902" width="100.224" height="16.43" style="fill:none;stroke:black;stroke-width:1px;"/>
                    <g transform="matrix(1,0,0,1,335.175,281.403)">
                        <text x="0px" y="0px" style="font-family:'ArialMT', 'Arial', sans-serif;font-size:13.144px;">description</text>
                    </g>
                    <rect x="331.067" y="286.332" width="100.224" height="16.43" style="fill:none;stroke:black;stroke-width:1px;"/>
                    <g transform="matrix(1,0,0,1,335.175,297.833)">
                        <text x="0px" y="0px" style="font-family:'ArialMT', 'Arial', sans-serif;font-size:13.144px;">minimumsalary</text>
                    </g>
                    <rect x="331.067" y="302.762" width="100.224" height="16.43" style="fill:none;stroke:black;stroke-width:1px;"/>
                    <g transform="matrix(1,0,0,1,335.175,314.263)">
                        <text x="0px" y="0px" style="font-family:'ArialMT', 'Arial', sans-serif;font-size:13.144px;">maximumsalary</text>
                    </g>
                    <rect x="331.067" y="319.192" width="100.224" height="16.43" style="fill:none;stroke:black;stroke-width:1px;"/>
                    <g transform="matrix(1,0,0,1,335.175,330.693)">
                        <text x="0px" y="0px" style="font-family:'ArialMT', 'Arial', sans-serif;font-size:13.144px;">experience</text>
                    </g>
                    <rect x="331.067" y="335.623" width="100.224" height="16.43" style="fill:none;stroke:black;stroke-width:1px;"/>
                    <g transform="matrix(1,0,0,1,335.175,347.124)">
                        <text x="0px" y="0px" style="font-family:'ArialMT', 'Arial', sans-serif;font-size:13.144px;">qualiﬁcation</text>
                    </g>
                    <rect x="331.067" y="352.053" width="100.224" height="16.43" style="fill:none;stroke:black;stroke-width:1px;"/>
                    <g transform="matrix(1,0,0,1,335.175,363.554)">
                        <text x="0px" y="0px" style="font-family:'ArialMT', 'Arial', sans-serif;font-size:13.144px;">createdat</text>
                    </g>
                </g>
                <g transform="matrix(2.69834,0,0,2.69834,-2201.58,-990.364)">
                    <rect x="599.7" y="199.252" width="73.936" height="16.43" style="fill:rgb(0,0,119);stroke:black;stroke-width:1px;"/>
                    <g transform="matrix(1,0,0,1,603.808,210.753)">
                        <text x="0px" y="0px" style="font-family:'ArialMT', 'Arial', sans-serif;font-size:13.144px;fill:white;">mailbox</text>
                    </g>
                    <rect x="599.7" y="215.683" width="73.936" height="16.43" style="fill:rgb(170,238,170);stroke:black;stroke-width:1px;"/>
                    <g transform="matrix(1.15556,0,0,1,172.99,-5.38771)">
                        <rect x="599.7" y="215.683" width="73.936" height="16.43" style="fill:rgb(170,238,170);stroke:black;stroke-width:1px;"/>
                    </g>
                    <g transform="matrix(1,0,0,1,603.808,227.184)">
                        <text x="0px" y="0px" style="font-family:'ArialMT', 'Arial', sans-serif;font-size:13.144px;">id_mailbox</text>
                    </g>
                    <rect x="599.7" y="232.113" width="73.936" height="16.43" style="fill:none;stroke:black;stroke-width:1px;"/>
                    <g transform="matrix(1,0,0,1,603.808,243.614)">
                        <text x="0px" y="0px" style="font-family:'ArialMT', 'Arial', sans-serif;font-size:13.144px;">id_fromuser</text>
                    </g>
                    <rect x="599.7" y="248.543" width="73.936" height="16.43" style="fill:none;stroke:black;stroke-width:1px;"/>
                    <g transform="matrix(1,0,0,1,603.808,260.044)">
                        <text x="0px" y="0px" style="font-family:'ArialMT', 'Arial', sans-serif;font-size:13.144px;">fromuser</text>
                    </g>
                    <rect x="599.7" y="264.973" width="73.936" height="16.43" style="fill:none;stroke:black;stroke-width:1px;"/>
                    <g transform="matrix(1,0,0,1,603.808,276.474)">
                        <text x="0px" y="0px" style="font-family:'ArialMT', 'Arial', sans-serif;font-size:13.144px;">id_touser</text>
                    </g>
                    <rect x="599.7" y="281.403" width="73.936" height="16.43" style="fill:none;stroke:black;stroke-width:1px;"/>
                    <g transform="matrix(1,0,0,1,603.808,292.904)">
                        <text x="0px" y="0px" style="font-family:'ArialMT', 'Arial', sans-serif;font-size:13.144px;">subject</text>
                    </g>
                    <rect x="599.7" y="297.833" width="73.936" height="16.43" style="fill:none;stroke:black;stroke-width:1px;"/>
                    <g transform="matrix(1,0,0,1,603.808,309.334)">
                        <text x="0px" y="0px" style="font-family:'ArialMT', 'Arial', sans-serif;font-size:13.144px;">message</text>
                    </g>
                    <rect x="599.7" y="314.263" width="73.936" height="16.43" style="fill:none;stroke:black;stroke-width:1px;"/>
                    <g transform="matrix(1,0,0,1,603.808,325.764)">
                        <text x="0px" y="0px" style="font-family:'ArialMT', 'Arial', sans-serif;font-size:13.144px;">createdAt</text>
                    </g>
                </g>
                <g transform="matrix(2.69834,0,0,2.69834,-2081.59,-1007.02)">
                    <rect x="821.507" y="200.074" width="85.437" height="16.43" style="fill:rgb(0,0,119);stroke:black;stroke-width:1px;"/>
                    <g transform="matrix(1,0,0,1,825.614,211.575)">
                        <text x="0px" y="0px" style="font-family:'ArialMT', 'Arial', sans-serif;font-size:13.144px;fill:white;">reply_mailbox</text>
                    </g>
                    <rect x="821.507" y="216.504" width="85.437" height="16.43" style="fill:none;stroke:black;stroke-width:1px;"/>
                    <g transform="matrix(1,0,0,1,825.614,228.005)">
                        <text x="0px" y="0px" style="font-family:'ArialMT', 'Arial', sans-serif;font-size:13.144px;">id_reply</text>
                    </g>
                    <rect x="821.507" y="232.934" width="85.437" height="16.43" style="fill:none;stroke:black;stroke-width:1px;"/>
                    <g transform="matrix(1,0,0,1,825.614,244.435)">
                        <text x="0px" y="0px" style="font-family:'ArialMT', 'Arial', sans-serif;font-size:13.144px;">id_mailbox</text>
                    </g>
                    <rect x="821.507" y="249.364" width="85.437" height="16.43" style="fill:none;stroke:black;stroke-width:1px;"/>
                    <g transform="matrix(1,0,0,1,825.614,260.865)">
                        <text x="0px" y="0px" style="font-family:'ArialMT', 'Arial', sans-serif;font-size:13.144px;">id_user</text>
                    </g>
                    <rect x="821.507" y="265.794" width="85.437" height="16.43" style="fill:none;stroke:black;stroke-width:1px;"/>
                    <g transform="matrix(1,0,0,1,825.614,277.296)">
                        <text x="0px" y="0px" style="font-family:'ArialMT', 'Arial', sans-serif;font-size:13.144px;">usertype</text>
                    </g>
                    <rect x="821.507" y="282.225" width="85.437" height="16.43" style="fill:none;stroke:black;stroke-width:1px;"/>
                    <g transform="matrix(1,0,0,1,825.614,293.726)">
                        <text x="0px" y="0px" style="font-family:'ArialMT', 'Arial', sans-serif;font-size:13.144px;">message</text>
                    </g>
                    <rect x="821.507" y="298.655" width="85.437" height="16.43" style="fill:none;stroke:black;stroke-width:1px;"/>
                    <g transform="matrix(1,0,0,1,825.614,310.156)">
                        <text x="0px" y="0px" style="font-family:'ArialMT', 'Arial', sans-serif;font-size:13.144px;">createdAt</text>
                    </g>
                </g>
                <g transform="matrix(2.69834,0,0,2.69834,-1778.06,599.639)">
                    <rect x="607.094" y="58.775" width="65.721" height="16.43" style="fill:rgb(0,0,119);stroke:black;stroke-width:1px;"/>
                    <g transform="matrix(1,0,0,1,611.201,70.2758)">
                        <text x="0px" y="0px" style="font-family:'ArialMT', 'Arial', sans-serif;font-size:13.144px;fill:white;">states</text>
                    </g>
                    <rect x="607.094" y="75.205" width="65.721" height="16.43" style="fill:rgb(170,238,170);stroke:black;stroke-width:1px;"/>
                    <g transform="matrix(1,0,0,1,611.201,86.7059)">
                        <text x="0px" y="0px" style="font-family:'ArialMT', 'Arial', sans-serif;font-size:13.144px;">id</text>
                    </g>
                    <rect x="607.094" y="91.635" width="65.721" height="16.43" style="fill:none;stroke:black;stroke-width:1px;"/>
                    <g transform="matrix(1,0,0,1,611.201,103.136)">
                        <text x="0px" y="0px" style="font-family:'ArialMT', 'Arial', sans-serif;font-size:13.144px;">name</text>
                    </g>
                    <rect x="607.094" y="108.065" width="65.721" height="16.43" style="fill:none;stroke:black;stroke-width:1px;"/>
                    <g transform="matrix(1,0,0,1,611.201,119.566)">
                        <text x="0px" y="0px" style="font-family:'ArialMT', 'Arial', sans-serif;font-size:13.144px;">country_id</text>
                    </g>
                </g>
                <g transform="matrix(2.69834,0,0,2.69834,-668.908,4.09141)">
                    <rect x="12.323" y="121.209" width="78.865" height="16.43" style="fill:rgb(0,0,119);stroke:black;stroke-width:1px;"/>
                    <g transform="matrix(1,0,0,1,16.4301,132.71)">
                        <text x="0px" y="0px" style="font-family:'ArialMT', 'Arial', sans-serif;font-size:13.144px;fill:white;">users</text>
                    </g>
                    <rect x="12.323" y="137.639" width="78.865" height="16.43" style="fill:rgb(170,238,170);stroke:black;stroke-width:1px;"/>
                    <g transform="matrix(1,0,0,1,16.4301,149.14)">
                        <text x="0px" y="0px" style="font-family:'ArialMT', 'Arial', sans-serif;font-size:13.144px;">id_user</text>
                    </g>
                    <rect x="12.323" y="154.069" width="78.865" height="16.43" style="fill:none;stroke:black;stroke-width:1px;"/>
                    <g transform="matrix(1,0,0,1,16.4301,165.571)">
                        <text x="0px" y="0px" style="font-family:'ArialMT', 'Arial', sans-serif;font-size:13.144px;">ﬁrstname</text>
                    </g>
                    <rect x="12.323" y="170.5" width="78.865" height="16.43" style="fill:none;stroke:black;stroke-width:1px;"/>
                    <g transform="matrix(1,0,0,1,16.4301,182.001)">
                        <text x="0px" y="0px" style="font-family:'ArialMT', 'Arial', sans-serif;font-size:13.144px;">lastname</text>
                    </g>
                    <rect x="12.323" y="186.93" width="78.865" height="16.43" style="fill:none;stroke:black;stroke-width:1px;"/>
                    <g transform="matrix(1,0,0,1,16.4301,198.431)">
                        <text x="0px" y="0px" style="font-family:'ArialMT', 'Arial', sans-serif;font-size:13.144px;">email</text>
                    </g>
                    <rect x="12.323" y="203.36" width="78.865" height="16.43" style="fill:none;stroke:black;stroke-width:1px;"/>
                    <g transform="matrix(1,0,0,1,16.4301,214.861)">
                        <text x="0px" y="0px" style="font-family:'ArialMT', 'Arial', sans-serif;font-size:13.144px;">password</text>
                    </g>
                    <rect x="12.323" y="219.79" width="78.865" height="16.43" style="fill:none;stroke:black;stroke-width:1px;"/>
                    <g transform="matrix(1,0,0,1,16.4301,231.291)">
                        <text x="0px" y="0px" style="font-family:'ArialMT', 'Arial', sans-serif;font-size:13.144px;">address</text>
                    </g>
                    <rect x="12.323" y="236.22" width="78.865" height="16.43" style="fill:none;stroke:black;stroke-width:1px;"/>
                    <g transform="matrix(1,0,0,1,16.4301,247.721)">
                        <text x="0px" y="0px" style="font-family:'ArialMT', 'Arial', sans-serif;font-size:13.144px;">city</text>
                    </g>
                    <rect x="12.323" y="252.65" width="78.865" height="16.43" style="fill:none;stroke:black;stroke-width:1px;"/>
                    <g transform="matrix(1,0,0,1,16.4301,264.151)">
                        <text x="0px" y="0px" style="font-family:'ArialMT', 'Arial', sans-serif;font-size:13.144px;">state</text>
                    </g>
                    <rect x="12.323" y="269.08" width="78.865" height="16.43" style="fill:none;stroke:black;stroke-width:1px;"/>
                    <g transform="matrix(1,0,0,1,16.4301,280.582)">
                        <text x="0px" y="0px" style="font-family:'ArialMT', 'Arial', sans-serif;font-size:13.144px;">contactno</text>
                    </g>
                    <rect x="12.323" y="285.511" width="78.865" height="16.43" style="fill:none;stroke:black;stroke-width:1px;"/>
                    <g transform="matrix(1,0,0,1,16.4301,297.012)">
                        <text x="0px" y="0px" style="font-family:'ArialMT', 'Arial', sans-serif;font-size:13.144px;">qualiﬁcation</text>
                    </g>
                    <rect x="12.323" y="301.941" width="78.865" height="16.43" style="fill:none;stroke:black;stroke-width:1px;"/>
                    <g transform="matrix(1,0,0,1,16.4301,313.442)">
                        <text x="0px" y="0px" style="font-family:'ArialMT', 'Arial', sans-serif;font-size:13.144px;">stream</text>
                    </g>
                    <rect x="12.323" y="318.371" width="78.865" height="16.43" style="fill:none;stroke:black;stroke-width:1px;"/>
                    <g transform="matrix(1,0,0,1,16.4301,329.872)">
                        <text x="0px" y="0px" style="font-family:'ArialMT', 'Arial', sans-serif;font-size:13.144px;">passingyear</text>
                    </g>
                    <rect x="12.323" y="334.801" width="78.865" height="16.43" style="fill:none;stroke:black;stroke-width:1px;"/>
                    <g transform="matrix(1,0,0,1,16.4301,346.302)">
                        <text x="0px" y="0px" style="font-family:'ArialMT', 'Arial', sans-serif;font-size:13.144px;">dob</text>
                    </g>
                    <rect x="12.323" y="351.231" width="78.865" height="16.43" style="fill:none;stroke:black;stroke-width:1px;"/>
                    <g transform="matrix(1,0,0,1,16.4301,362.732)">
                        <text x="0px" y="0px" style="font-family:'ArialMT', 'Arial', sans-serif;font-size:13.144px;">age</text>
                    </g>
                    <rect x="12.323" y="367.661" width="78.865" height="16.43" style="fill:none;stroke:black;stroke-width:1px;"/>
                    <g transform="matrix(1,0,0,1,16.4301,379.162)">
                        <text x="0px" y="0px" style="font-family:'ArialMT', 'Arial', sans-serif;font-size:13.144px;">designation</text>
                    </g>
                    <rect x="12.323" y="384.091" width="78.865" height="16.43" style="fill:none;stroke:black;stroke-width:1px;"/>
                    <g transform="matrix(1,0,0,1,16.4301,395.593)">
                        <text x="0px" y="0px" style="font-family:'ArialMT', 'Arial', sans-serif;font-size:13.144px;">resume</text>
                    </g>
                    <rect x="12.323" y="400.522" width="78.865" height="16.43" style="fill:none;stroke:black;stroke-width:1px;"/>
                    <g transform="matrix(1,0,0,1,16.4301,412.023)">
                        <text x="0px" y="0px" style="font-family:'ArialMT', 'Arial', sans-serif;font-size:13.144px;">hash</text>
                    </g>
                    <rect x="12.323" y="416.952" width="78.865" height="16.43" style="fill:none;stroke:black;stroke-width:1px;"/>
                    <g transform="matrix(1,0,0,1,16.4301,428.453)">
                        <text x="0px" y="0px" style="font-family:'ArialMT', 'Arial', sans-serif;font-size:13.144px;">active</text>
                    </g>
                    <rect x="12.323" y="433.382" width="78.865" height="16.43" style="fill:none;stroke:black;stroke-width:1px;"/>
                    <g transform="matrix(1,0,0,1,16.4301,444.883)">
                        <text x="0px" y="0px" style="font-family:'ArialMT', 'Arial', sans-serif;font-size:13.144px;">aboutme</text>
                    </g>
                    <rect x="12.323" y="449.812" width="78.865" height="16.43" style="fill:none;stroke:black;stroke-width:1px;"/>
                    <g transform="matrix(1,0,0,1,16.4301,461.313)">
                        <text x="0px" y="0px" style="font-family:'ArialMT', 'Arial', sans-serif;font-size:13.144px;">skills</text>
                    </g>
                </g>
            </g>
            <g id="Layer1" transform="matrix(1.12385,0,0,1.12385,714.381,1375.41)">
                <g transform="matrix(1.01636,0.632081,0.632081,2.4608,-690.806,-636.064)">
                    <g transform="matrix(1.04192,-0.267628,-0.267628,0.430333,8.93358,64.084)">
                        <path d="M549.701,1442.26L563.385,1458.14L542.47,1459.56L549.701,1442.26Z"/>
                        <path d="M245.41,1325.21C245.41,1325.21 488.39,1426.79 549.545,1452.35" style="fill:none;stroke:black;stroke-width:4.17px;stroke-linecap:round;stroke-miterlimit:1;"/>
                    </g>
                </g>
                <g transform="matrix(-2.4157,-1.50235,0.265555,1.03385,356.032,566.635)">
                    <g transform="matrix(-0.438367,-0.637016,0.112599,1.02429,359.779,-482.506)">
                        <path d="M783.646,1458.13L762.683,1458.14L775.252,1441.36L783.646,1458.13Z"/>
                        <path d="M717.841,1268.4C909.302,1311.1 931.119,1371.86 776.096,1451.42" style="fill:none;stroke:black;stroke-width:4.17px;stroke-linecap:round;stroke-miterlimit:1;"/>
                    </g>
                </g>
                <g transform="matrix(1.01636,0.632081,0.632081,2.4608,-358.911,-317.661)">
                    <g transform="matrix(1.04192,-0.267628,-0.267628,0.430333,-283.936,9.92018)">
                        <path d="M545.019,1723.32L560.352,1737.61L539.716,1741.3L545.019,1723.32Z"/>
                        <path d="M560.352,1557.68C434.103,1649.55 449.213,1702.65 545.965,1733.37" style="fill:none;stroke:black;stroke-width:4.17px;stroke-linecap:round;stroke-miterlimit:1;"/>
                    </g>
                </g>
                <g transform="matrix(2.69834,0,0,2.69834,-668.908,-644.294)">
                    <g transform="matrix(0.329759,-0,-0,0.329759,10.2611,63.5851)">
                        <path d="M543.247,1212.75L563.385,1218.57L546.642,1231.19L543.247,1212.75Z"/>
                        <path d="M245.41,1277.12C245.41,1277.12 486.013,1232.82 548.633,1221.29" style="fill:none;stroke:black;stroke-width:4.17px;stroke-linecap:round;stroke-miterlimit:1;"/>
                    </g>
                </g>
                <g transform="matrix(2.69834,0,0,2.69834,-668.908,-907.721)">
                    <g transform="matrix(0.329759,-0,-0,0.329759,10.2611,161.211)">
                        <path d="M264.437,1003.5L245.41,994.701L263.866,984.759L264.437,1003.5Z"/>
                        <path d="M803.5,972.475C611.812,980.07 706.121,980.618 260.403,994.244" style="fill:none;stroke:black;stroke-width:4.17px;stroke-linecap:round;stroke-miterlimit:1;"/>
                    </g>
                </g>
                <g transform="matrix(2.69834,0,0,2.69834,-668.908,-907.721)">
                    <g transform="matrix(0.329759,-0,-0,0.329759,10.2611,161.211)">
                        <path d="M263.929,992.745L245.41,982.921L264.38,974.001L263.929,992.745Z"/>
                        <path d="M872.479,180.638C706.098,261.81 949.059,994.658 260.406,983.283" style="fill:none;stroke:black;stroke-width:4.17px;stroke-linecap:round;stroke-miterlimit:1;"/>
                    </g>
                </g>
                <g transform="matrix(2.69834,0,0,2.69834,-668.908,-907.721)">
                    <g transform="matrix(0.329759,-0,-0,0.329759,10.2611,161.211)">
                        <path d="M265.85,958.05L245.41,962.701L253.953,943.558L265.85,958.05Z"/>
                        <path d="M289.203,246.694C407.756,255.027 631.343,640.101 257.003,953.183" style="fill:none;stroke:black;stroke-width:4.17px;stroke-linecap:round;stroke-miterlimit:1;"/>
                    </g>
                </g>
                <g transform="matrix(2.69834,0,0,2.69834,-668.908,-907.721)">
                    <g transform="matrix(0.329759,-0,-0,0.329759,10.2611,161.211)">
                        <path d="M265.432,975.91L245.41,969.701L262.391,957.409L265.432,975.91Z"/>
                        <path d="M289.203,143.546C621.876,291.376 881.142,860.394 260.211,967.268" style="fill:none;stroke:black;stroke-width:4.17px;stroke-linecap:round;stroke-miterlimit:1;"/>
                    </g>
                </g>
                <g transform="matrix(2.69834,0,0,2.69834,-668.908,-907.721)">
                    <g transform="matrix(0.329759,-0,-0,0.329759,10.2611,161.211)">
                        <path d="M265.988,1046.88L245.41,1042.87L260.958,1028.81L265.988,1046.88Z"/>
                        <path d="M289.203,189.872C468.339,271.268 830.423,874.121 259.86,1038.85" style="fill:none;stroke:black;stroke-width:4.17px;stroke-linecap:round;stroke-miterlimit:1;"/>
                    </g>
                </g>
                <g transform="matrix(2.69834,0,0,2.69834,216.146,-575.451)">
                    <g transform="matrix(0.329759,-0,-0,0.329759,-317.739,38.0722)">
                        <path d="M781.699,1517.3L762.929,1507.96L781.659,1498.55L781.699,1517.3Z"/>
                        <path d="M1780.01,1218.57C1514.98,1437.93 1165.16,1506.24 777.929,1507.93" style="fill:none;stroke:black;stroke-width:4.17px;stroke-linecap:round;stroke-miterlimit:1;"/>
                    </g>
                </g>
                <g transform="matrix(2.69834,0,0,2.69834,216.146,-575.451)">
                    <g transform="matrix(0.329759,-0,-0,0.329759,-317.739,38.0722)">
                        <path d="M825.779,1844.41L806.072,1837.26L823.614,1825.78L825.779,1844.41Z"/>
                        <path d="M1780.01,1168.75C1056.17,1184.45 1138.31,1789.26 820.971,1835.53" style="fill:none;stroke:black;stroke-width:4.17px;stroke-linecap:round;stroke-miterlimit:1;"/>
                    </g>
                </g>
                <g transform="matrix(2.71277,0.000680841,0.000680841,2.69837,176.617,-833.162)">
                    <g transform="matrix(0.328004,-8.27607e-05,-8.27607e-05,0.329755,-301.51,133.654)">
                        <path d="M736.129,1228.55L717.841,1218.31L737.012,1209.82L736.129,1228.55Z"/>
                        <path d="M1780.01,1268.4C1780.01,1268.4 861.806,1225.09 732.824,1219.01" style="fill:none;stroke:black;stroke-width:4.17px;stroke-linecap:round;stroke-miterlimit:1;"/>
                    </g>
                </g>
                <g transform="matrix(2.69834,0,0,2.69834,-1234.61,-831.828)">
                    <g transform="matrix(0.329759,-0,-0,0.329759,219.908,133.085)">
                        <path d="M307.274,107.845L289.203,97.22L308.546,89.138L307.274,107.845Z"/>
                        <path d="M872.479,136.879C872.479,136.879 395.368,104.438 304.169,98.237" style="fill:none;stroke:black;stroke-width:4.17px;stroke-linecap:round;stroke-miterlimit:1;"/>
                    </g>
                </g>
                <g transform="matrix(2.69834,0,0,2.69834,181.068,-606.798)">
                    <g transform="matrix(0.329759,-0,-0,0.329759,-304.739,49.6894)">
                        <path d="M1764.99,990.652L1780.01,1005.27L1759.3,1008.52L1764.99,990.652Z"/>
                        <path d="M1549.18,528.743C1730.6,580.773 1557.67,925.746 1765.72,1000.72" style="fill:none;stroke:black;stroke-width:4.17px;stroke-linecap:round;stroke-miterlimit:1;"/>
                    </g>
                </g>
                <g transform="matrix(2.69834,0,0,2.69834,181.068,-606.798)">
                    <g transform="matrix(0.329759,-0,-0,0.329759,-304.739,49.6894)">
                        <path d="M1763.25,1012.69L1780.01,1025.27L1759.88,1031.13L1763.25,1012.69Z"/>
                        <path d="M1097.91,919.152C1396.42,958.805 1384.42,953.158 1765.25,1022.58" style="fill:none;stroke:black;stroke-width:4.17px;stroke-linecap:round;stroke-miterlimit:1;"/>
                    </g>
                </g>
                <g transform="matrix(2.69834,0,0,2.69834,381.273,-537.627)">
                    <g transform="matrix(0.329759,-0,-0,0.329759,-378.935,24.0547)">
                        <path d="M1224.41,472.362L1245.25,474.68L1230.89,489.957L1224.41,472.362Z"/>
                        <path d="M1097.91,878.148C1203.28,723.75 1150.99,520.972 1231.17,479.863" style="fill:none;stroke:black;stroke-width:4.17px;stroke-linecap:round;stroke-miterlimit:1;"/>
                    </g>
                </g>
            </g>
        </g>
    </g>
</svg>
